<svg width="120" height="64" viewBox="0 0 120 64" fill="none" xmlns="http://www.w3.org/2000/svg">
<g clip-path="url(#clip0_929_3029)">
<path d="M84.7297 41.3463C83.076 41.7176 78.7234 41.9315 78.7234 41.9315L78.1722 43.6195C78.1722 43.6195 80.3427 43.4395 81.9275 43.597C81.9275 43.597 82.4443 43.5407 82.5018 44.171C82.5123 44.5766 82.497 44.9826 82.4558 45.3864C82.4558 45.3864 82.4214 45.769 81.8701 45.859C81.2729 45.9603 77.1845 46.1066 77.1845 46.1066L76.5184 48.3011C76.5184 48.3011 76.2772 48.8075 76.8285 48.6612C77.3453 48.5261 81.6289 47.7384 82.1917 47.8509C82.7889 47.9972 83.455 48.7737 83.2597 49.494C83.03 50.3718 78.7579 53.0502 76.1509 52.8588C76.1509 52.8588 74.7843 52.9489 73.6243 51.137C72.5448 49.4152 74.0378 46.1404 74.0378 46.1404C74.0378 46.1404 73.3602 44.6098 73.854 44.1034C73.854 44.1034 74.1526 43.8446 75.0025 43.7771L76.0475 41.6501C76.0475 41.6501 74.8532 41.7289 74.1411 40.8736C73.475 40.0521 73.4291 39.6807 73.9344 39.4556C74.4742 39.1968 79.4469 38.3078 82.8692 38.4203C82.8692 38.4203 84.0636 38.3078 85.0857 40.3334C85.0743 40.3334 85.5796 41.1549 84.7297 41.3463ZM71.8558 49.5165C71.4194 50.5293 70.2594 51.6097 68.8239 50.9344C67.3883 50.2592 65.1374 45.724 65.1374 45.724C65.1374 45.724 64.2761 44.0359 64.1153 44.0697C64.1153 44.0697 63.9316 43.7433 63.8167 45.5889C63.7019 47.4345 63.8397 51.0245 63.0932 51.5872C62.3812 52.1498 61.5198 51.9248 61.0719 51.2608C60.67 50.6081 60.4977 49.0551 60.7159 46.3317C60.9801 43.6083 61.6232 40.7048 62.4501 39.7932C63.2769 38.8817 63.943 39.5457 64.1957 39.782C64.1957 39.782 65.2982 40.7611 67.1242 43.642L67.4458 44.171C67.4458 44.171 69.0995 46.8944 69.2718 46.8831C69.2718 46.8831 69.4096 47.0069 69.5244 46.9169C69.6967 46.8718 69.6278 45.9941 69.6278 45.9941C69.6278 45.9941 69.2833 43.0343 67.7788 38.0152C67.7788 38.0152 67.5491 37.3849 67.7099 36.7998C67.8707 36.2146 68.4679 36.4846 68.4679 36.4846C68.4679 36.4846 70.8107 37.6325 71.9362 41.3688C73.0501 45.1388 72.2922 48.5036 71.8558 49.5165ZM60.3484 39.917C60.1532 40.2997 60.0384 40.8511 59.0507 40.9974C59.0507 40.9974 49.5991 41.6276 49.1512 42.2803C49.1512 42.2803 48.8181 42.663 49.3349 42.7755C49.8517 42.888 51.9878 43.1581 53.0214 43.2144C54.1239 43.2256 57.8448 43.2594 59.177 44.8912C59.177 44.8912 59.9695 45.6677 59.935 47.4233C59.9006 49.2239 59.579 49.8541 58.867 50.5068C58.1205 51.1145 51.7122 53.9279 47.5778 49.6065C47.5778 49.6065 45.6714 47.5246 48.2324 45.949C48.2324 45.949 50.0814 44.8574 54.7785 46.1404C54.7785 46.1404 56.2026 46.6468 56.1337 47.1532C56.0533 47.6934 54.9623 48.2673 53.3774 48.2336C51.8385 48.1885 50.7131 47.4683 50.9313 47.5808C51.138 47.6596 49.2775 46.703 48.7033 47.3558C48.1291 47.9522 48.2669 48.3236 48.8296 48.695C50.2652 49.494 55.8121 49.2126 57.4659 47.412C57.4659 47.412 58.1205 46.6805 57.1213 46.0841C56.1222 45.5214 53.2626 45.1838 52.1486 45.1275C51.0806 45.0712 47.107 45.1388 46.5328 44.1034C46.5328 44.1034 45.9585 43.4057 46.5902 41.425C47.2563 39.3544 51.8845 38.5553 53.8827 38.3753C53.8827 38.3753 59.3838 38.184 60.3944 39.2868C60.4627 39.4948 60.4462 39.7207 60.3484 39.917ZM44.7297 52.0598C44.0636 52.5437 42.651 52.3299 42.2491 51.7897C41.8471 51.3058 41.7093 49.3814 41.7897 46.3654C41.8701 43.3157 41.939 39.5344 42.6051 38.938C43.3171 38.3303 43.7535 38.8592 44.0292 39.2756C44.3278 39.6807 44.6838 40.1309 44.7642 41.0874C44.8446 42.044 45.0628 47.0632 45.0628 47.0632C45.0628 47.0632 45.3614 51.5872 44.7297 52.0598ZM46.1653 35.8769C44.2244 36.5072 42.8922 36.2933 41.7668 35.8207C41.2729 36.6647 40.9858 36.9235 40.6068 36.9798C40.0556 37.0361 39.5618 36.1695 39.4699 35.8882C39.378 35.6744 39.1139 35.3143 39.4354 34.459C38.3329 33.4912 38.2525 32.1857 38.4363 31.3079C38.7119 30.2951 40.5724 26.4463 46.2342 25.9962C46.2342 25.9962 49.0019 25.7936 49.4728 27.2453H49.5531C49.5531 27.2453 52.2405 27.2566 52.1831 29.5974C52.1486 31.9494 49.1971 34.8754 46.1653 35.8769ZM40.8825 30.6665C40.3082 31.5668 40.2853 32.1069 40.5494 32.4783C41.204 31.4992 42.3984 29.9575 44.1555 28.7871C42.8003 28.8996 41.6634 29.4736 40.8825 30.6665ZM48.7033 29.1585C46.9232 29.4173 44.167 31.7581 42.8578 33.6712C44.8675 34.0313 48.4162 33.8963 49.9895 30.7565C49.9781 30.7565 50.736 28.8096 48.7033 29.1585ZM97.0295 47.2882C95.9614 49.1113 92.964 52.9151 88.9674 52.0261C87.6467 55.1659 86.5442 58.3282 85.9126 63.0772C85.9126 63.0772 85.7748 64 84.9939 63.6737C84.2244 63.4036 82.9382 62.1432 82.6855 60.3988C82.4099 58.1031 83.455 54.2205 85.5796 49.7753C84.9594 48.785 84.5345 47.367 84.902 45.3526C84.902 45.3526 85.4417 41.6164 89.266 38.2402C89.266 38.2402 89.7254 37.8463 89.9895 37.9701C90.2881 38.0939 90.1503 39.3093 89.9092 39.8945C89.668 40.4797 87.9568 43.3832 87.9568 43.3832C87.9568 43.3832 86.8888 45.3413 87.1874 46.8831C89.1971 43.8558 93.7679 37.7451 96.6045 39.6695C97.5577 40.3334 97.9941 41.7852 97.9941 43.3494C97.9827 44.7336 97.6496 46.1966 97.0295 47.2882ZM96.2026 42.4941C96.2026 42.4941 96.0418 41.29 94.8474 42.6179C93.8138 43.7321 91.9534 45.8365 90.4489 48.6837C92.0223 48.5149 93.5382 47.6709 93.9976 47.2432C94.7441 46.5905 96.4782 44.8349 96.2026 42.4941ZM40.4461 44.0247C40.2279 46.7481 39.1598 51.3283 31.5916 53.5903C26.5959 55.0646 21.8759 54.3556 19.3034 53.7141C19.2459 54.7157 19.1311 55.1433 18.9703 55.3122C18.7521 55.526 17.1213 56.4488 16.2256 55.1433C15.8236 54.5244 15.6169 53.399 15.502 52.3974C9.71393 49.7866 7.04956 46.0278 6.9462 45.859C6.81987 45.7352 5.49917 44.3848 6.81987 42.7305C8.06018 41.2337 12.1142 39.737 15.7662 39.1293C15.8925 36.0683 16.26 33.7612 16.6964 32.7034C17.2247 31.4767 17.8908 32.5796 18.465 33.4124C18.9473 34.0313 19.2345 36.6985 19.2574 38.8254C21.6462 38.7129 23.0587 38.8817 25.7231 39.3544C29.1914 39.9733 31.5112 41.7064 31.3045 43.6758C31.1552 45.6114 29.3407 46.4104 28.6516 46.4667C27.9281 46.523 26.8026 46.0166 26.8026 46.0166C26.0332 45.6564 26.7452 45.3413 27.6755 44.9475C28.6861 44.4635 28.4564 43.9684 28.4564 43.9684C28.0774 42.888 23.5755 42.134 19.0966 42.134C19.0737 44.5536 19.2 48.5712 19.2574 50.9119C22.3927 51.4971 24.7355 51.3846 24.7355 51.3846C24.7355 51.3846 36.1739 51.0695 36.5184 43.9121C36.8629 36.7547 25.1144 29.8675 16.4208 27.6842C7.73862 25.456 2.82332 27.009 2.39839 27.2228C1.93902 27.4479 2.36394 27.5154 2.36394 27.5154C2.80131 27.5936 3.23148 27.7065 3.65019 27.853C4.51152 28.1231 3.84542 28.562 3.84542 28.562C2.36394 29.0234 0.69871 28.7308 0.377148 28.0669C0.0555864 27.4029 0.595351 26.8064 1.21551 25.9512C1.83566 25.0509 2.51324 25.0846 2.51324 25.0846C13.2511 21.4384 26.3318 28.0331 26.3318 28.0331C38.5856 34.1214 40.6757 41.2562 40.4461 44.0247ZM8.03721 43.6533C6.81987 44.2385 7.65823 45.0825 7.65823 45.0825C9.94361 47.4908 12.7573 48.9988 15.4331 49.9329C15.7432 45.7802 15.6973 44.3173 15.7317 42.2241C11.5514 42.5054 9.13971 43.1581 8.03721 43.6533Z" fill="black"/>
<path d="M119.772 42.798V44.2835C119.773 44.3605 119.758 44.4369 119.728 44.5082C119.698 44.5794 119.654 44.6442 119.599 44.6986C119.543 44.7531 119.477 44.7962 119.404 44.8254C119.331 44.8546 119.253 44.8693 119.175 44.8687H111.951C111.951 45.2401 111.963 45.5664 111.963 45.8703C111.973 47.8738 111.869 49.8763 111.653 51.8685C111.639 52.0119 111.571 52.1453 111.463 52.2429C111.355 52.3406 111.214 52.3956 111.067 52.3974H109.505C109.427 52.3975 109.35 52.3815 109.279 52.3505C109.208 52.3195 109.144 52.2741 109.092 52.2174C109.038 52.1601 108.999 52.0922 108.975 52.0184C108.951 51.9446 108.944 51.8666 108.954 51.7897C109.174 49.824 109.281 47.8478 109.275 45.8703C109.275 45.5552 109.275 45.2288 109.264 44.8687H102.121C102.042 44.8693 101.964 44.8546 101.891 44.8254C101.819 44.7962 101.753 44.7531 101.697 44.6986C101.641 44.6442 101.597 44.5794 101.568 44.5082C101.538 44.4369 101.523 44.3605 101.523 44.2835V42.798C101.523 42.721 101.538 42.6446 101.568 42.5734C101.597 42.5021 101.641 42.4373 101.697 42.3829C101.753 42.3284 101.819 42.2853 101.891 42.2561C101.964 42.2269 102.042 42.2122 102.121 42.2128H109.161C109.018 39.8238 108.707 37.4474 108.23 35.1005C108.218 35.0296 108.221 34.957 108.238 34.8872C108.256 34.8175 108.289 34.7521 108.334 34.6953C108.379 34.6393 108.437 34.594 108.502 34.5628C108.568 34.5317 108.64 34.5154 108.713 34.5153H110.401C110.529 34.5159 110.653 34.5599 110.751 34.64C110.849 34.72 110.916 34.8311 110.941 34.9542C111.405 37.352 111.712 39.7765 111.859 42.2128H119.175C119.332 42.2154 119.483 42.2779 119.594 42.3871C119.706 42.4963 119.769 42.6436 119.772 42.798Z" fill="#14326C"/>
<path d="M109.939 31.0153C106.488 22.6982 100.789 15.46 93.4547 10.0791C86.1203 4.69809 77.4279 1.3778 68.312 0.475146C59.1961 -0.427509 50.0016 1.12161 41.7169 4.95597C33.4322 8.79033 26.3706 14.7649 21.2914 22.2373C21.241 22.3109 21.2085 22.3948 21.1966 22.4827C21.1846 22.5705 21.1935 22.6598 21.2225 22.7438C21.2496 22.8284 21.2971 22.9054 21.3611 22.9681C21.4251 23.0308 21.5036 23.0774 21.59 23.1039L22.8992 23.5428C22.9739 23.5642 23.0512 23.5755 23.1289 23.5765C23.2486 23.5749 23.3661 23.5455 23.4719 23.4907C23.5777 23.4359 23.6688 23.3574 23.7376 23.2614C28.1124 16.944 33.9992 11.7723 40.8837 8.1981C47.7683 4.62387 55.4412 2.75583 63.2323 2.75712C72.6191 2.7587 81.7975 5.46941 89.6219 10.5509C97.4463 15.6324 103.57 22.8596 107.229 31.3304C107.281 31.4529 107.368 31.5577 107.481 31.6318C107.593 31.7058 107.725 31.7458 107.86 31.7467H109.422C109.511 31.7477 109.599 31.7265 109.677 31.6852C109.756 31.6438 109.822 31.5837 109.87 31.5104C109.926 31.4414 109.961 31.3591 109.973 31.272C109.986 31.185 109.974 31.0963 109.939 31.0153ZM107.539 31.5442C107.571 31.5672 107.606 31.5861 107.642 31.6004C107.608 31.5779 107.573 31.5667 107.539 31.5442Z" fill="url(#paint0_radial_929_3029)"/>
</g>
<defs>
<radialGradient id="paint0_radial_929_3029" cx="0" cy="0" r="1" gradientUnits="userSpaceOnUse" gradientTransform="translate(108.471 31.6905) scale(87.2949 85.5419)">
<stop offset="0.03" stop-color="#CBFFFF"/>
<stop offset="0.06" stop-color="#96FFFF"/>
<stop offset="0.08" stop-color="#68FFFF"/>
<stop offset="0.11" stop-color="#43FFFF"/>
<stop offset="0.14" stop-color="#25FFFF"/>
<stop offset="0.16" stop-color="#11FFFF"/>
<stop offset="0.19" stop-color="#04FFFF"/>
<stop offset="0.22" stop-color="#00FFFF"/>
<stop offset="1" stop-color="#0000FF" stop-opacity="0"/>
</radialGradient>
<clipPath id="clip0_929_3029">
<rect width="120" height="64" fill="white"/>
</clipPath>
</defs>
</svg>
