<svg width="1045" height="569" viewBox="0 0 1045 569" fill="none" xmlns="http://www.w3.org/2000/svg">
<path d="M737.8 367.4C723.4 370.7 685.5 372.6 685.5 372.6L680.7 387.6C680.7 387.6 699.6 386 713.4 387.4C713.4 387.4 717.9 386.9 718.4 392.5C718.492 396.105 718.358 399.712 718 403.3C718 403.3 717.7 406.7 712.9 407.5C707.7 408.4 672.1 409.7 672.1 409.7L666.3 429.2C666.3 429.2 664.2 433.7 669 432.4C673.5 431.2 710.8 424.2 715.7 425.2C720.9 426.5 726.7 433.4 725 439.8C723 447.6 685.8 471.4 663.1 469.7C663.1 469.7 651.2 470.5 641.1 454.4C631.7 439.1 644.7 410 644.7 410C644.7 410 638.8 396.4 643.1 391.9C643.1 391.9 645.7 389.6 653.1 389L662.2 370.1C662.2 370.1 651.8 370.8 645.6 363.2C639.8 355.9 639.4 352.6 643.8 350.6C648.5 348.3 691.8 340.4 721.6 341.4C721.6 341.4 732 340.4 740.9 358.4C740.8 358.4 745.2 365.7 737.8 367.4ZM625.7 440C621.9 449 611.8 458.6 599.3 452.6C586.8 446.6 567.2 406.3 567.2 406.3C567.2 406.3 559.7 391.3 558.3 391.6C558.3 391.6 556.7 388.7 555.7 405.1C554.7 421.5 555.9 453.4 549.4 458.4C543.2 463.4 535.7 461.4 531.8 455.5C528.3 449.7 526.8 435.9 528.7 411.7C531 387.5 536.6 361.7 543.8 353.6C551 345.5 556.8 351.4 559 353.5C559 353.5 568.6 362.2 584.5 387.8L587.3 392.5C587.3 392.5 601.7 416.7 603.2 416.6C603.2 416.6 604.4 417.7 605.4 416.9C606.9 416.5 606.3 408.7 606.3 408.7C606.3 408.7 603.3 382.4 590.2 337.8C590.2 337.8 588.2 332.2 589.6 327C591 321.8 596.2 324.2 596.2 324.2C596.2 324.2 616.6 334.4 626.4 367.6C636.1 401.1 629.5 431 625.7 440ZM525.5 354.7C523.8 358.1 522.8 363 514.2 364.3C514.2 364.3 431.9 369.9 428 375.7C428 375.7 425.1 379.1 429.6 380.1C434.1 381.1 452.7 383.5 461.7 384C471.3 384.1 503.7 384.4 515.3 398.9C515.3 398.9 522.2 405.8 521.9 421.4C521.6 437.4 518.8 443 512.6 448.8C506.1 454.2 450.3 479.2 414.3 440.8C414.3 440.8 397.7 422.3 420 408.3C420 408.3 436.1 398.6 477 410C477 410 489.4 414.5 488.8 419C488.1 423.8 478.6 428.9 464.8 428.6C451.4 428.2 441.6 421.8 443.5 422.8C445.3 423.5 429.1 415 424.1 420.8C419.1 426.1 420.3 429.4 425.2 432.7C437.7 439.8 486 437.3 500.4 421.3C500.4 421.3 506.1 414.8 497.4 409.5C488.7 404.5 463.8 401.5 454.1 401C444.8 400.5 410.2 401.1 405.2 391.9C405.2 391.9 400.2 385.7 405.7 368.1C411.5 349.7 451.8 342.6 469.2 341C469.2 341 517.1 339.3 525.9 349.1C526.495 350.948 526.351 352.955 525.5 354.7ZM389.5 462.6C383.7 466.9 371.4 465 367.9 460.2C364.4 455.9 363.2 438.8 363.9 412C364.6 384.9 365.2 351.3 371 346C377.2 340.6 381 345.3 383.4 349C386 352.6 389.1 356.6 389.8 365.1C390.5 373.6 392.4 418.2 392.4 418.2C392.4 418.2 395 458.4 389.5 462.6ZM402 318.8C385.1 324.4 373.5 322.5 363.7 318.3C359.4 325.8 356.9 328.1 353.6 328.6C348.8 329.1 344.5 321.4 343.7 318.9C342.9 317 340.6 313.8 343.4 306.2C333.8 297.6 333.1 286 334.7 278.2C337.1 269.2 353.3 235 402.6 231C402.6 231 426.7 229.2 430.8 242.1H431.5C431.5 242.1 454.9 242.2 454.4 263C454.1 283.9 428.4 309.9 402 318.8ZM356 272.5C351 280.5 350.8 285.3 353.1 288.6C358.8 279.9 369.2 266.2 384.5 255.8C372.7 256.8 362.8 261.9 356 272.5ZM424.1 259.1C408.6 261.4 384.6 282.2 373.2 299.2C390.7 302.4 421.6 301.2 435.3 273.3C435.2 273.3 441.8 256 424.1 259.1ZM844.9 420.2C835.6 436.4 809.5 470.2 774.7 462.3C763.2 490.2 753.6 518.3 748.1 560.5C748.1 560.5 746.9 568.7 740.1 565.8C733.4 563.4 722.2 552.2 720 536.7C717.6 516.3 726.7 481.8 745.2 442.3C739.8 433.5 736.1 420.9 739.3 403C739.3 403 744 369.8 777.3 339.8C777.3 339.8 781.3 336.3 783.6 337.4C786.2 338.5 785 349.3 782.9 354.5C780.8 359.7 765.9 385.5 765.9 385.5C765.9 385.5 756.6 402.9 759.2 416.6C776.7 389.7 816.5 335.4 841.2 352.5C849.5 358.4 853.3 371.3 853.3 385.2C853.2 397.5 850.3 410.5 844.9 420.2ZM837.7 377.6C837.7 377.6 836.3 366.9 825.9 378.7C816.9 388.6 800.7 407.3 787.6 432.6C801.3 431.1 814.5 423.6 818.5 419.8C825 414 840.1 398.4 837.7 377.6ZM352.2 391.2C350.3 415.4 341 456.1 275.1 476.2C231.6 489.3 190.5 483 168.1 477.3C167.6 486.2 166.6 490 165.2 491.5C163.3 493.4 149.1 501.6 141.3 490C137.8 484.5 136 474.5 135 465.6C84.5999 442.4 61.3999 409 60.4999 407.5C59.3999 406.4 47.8999 394.4 59.3999 379.7C70.1999 366.4 105.5 353.1 137.3 347.7C138.4 320.5 141.6 300 145.4 290.6C150 279.7 155.8 289.5 160.8 296.9C165 302.4 167.5 326.1 167.7 345C188.5 344 200.8 345.5 224 349.7C254.2 355.2 274.4 370.6 272.6 388.1C271.3 405.3 255.5 412.4 249.5 412.9C243.2 413.4 233.4 408.9 233.4 408.9C226.7 405.7 232.9 402.9 241 399.4C249.8 395.1 247.8 390.7 247.8 390.7C244.5 381.1 205.3 374.4 166.3 374.4C166.1 395.9 167.2 431.6 167.7 452.4C195 457.6 215.4 456.6 215.4 456.6C215.4 456.6 315 453.8 318 390.2C321 326.6 218.7 265.4 143 246C67.3999 226.2 24.5999 240 20.8999 241.9C16.8999 243.9 20.5999 244.5 20.5999 244.5C24.4083 245.195 28.154 246.198 31.7999 247.5C39.2999 249.9 33.4999 253.8 33.4999 253.8C20.5999 257.9 6.09988 255.3 3.29988 249.4C0.499878 243.5 5.19988 238.2 10.5999 230.6C15.9999 222.6 21.8999 222.9 21.8999 222.9C115.4 190.5 229.3 249.1 229.3 249.1C336 303.2 354.2 366.6 352.2 391.2ZM69.9999 387.9C59.3999 393.1 66.6999 400.6 66.6999 400.6C86.5999 422 111.1 435.4 134.4 443.7C137.1 406.8 136.7 393.8 137 375.2C100.6 377.7 79.5999 383.5 69.9999 387.9Z" fill="black"/>
<path d="M1042.9 380.3V393.5C1042.91 394.184 1042.77 394.863 1042.52 395.496C1042.26 396.13 1041.87 396.705 1041.39 397.189C1040.91 397.673 1040.33 398.056 1039.7 398.315C1039.06 398.574 1038.38 398.705 1037.7 398.7H974.8C974.8 402 974.9 404.9 974.9 407.6C974.989 425.403 974.088 443.197 972.2 460.9C972.079 462.174 971.492 463.359 970.55 464.227C969.609 465.094 968.38 465.584 967.1 465.6H953.5C952.821 465.601 952.15 465.459 951.53 465.183C950.91 464.907 950.355 464.504 949.9 464C949.437 463.491 949.09 462.888 948.882 462.232C948.675 461.576 948.613 460.883 948.7 460.2C950.615 442.733 951.55 425.172 951.5 407.6C951.5 404.8 951.5 401.9 951.4 398.7H889.2C888.516 398.705 887.837 398.574 887.204 398.315C886.571 398.056 885.995 397.673 885.511 397.189C885.027 396.705 884.645 396.13 884.385 395.496C884.126 394.863 883.995 394.184 884 393.5V380.3C883.995 379.616 884.126 378.937 884.385 378.304C884.645 377.67 885.027 377.095 885.511 376.611C885.995 376.127 886.571 375.744 887.204 375.485C887.837 375.226 888.516 375.095 889.2 375.1H950.5C949.261 353.872 946.555 332.755 942.4 311.9C942.292 311.27 942.316 310.625 942.471 310.005C942.626 309.385 942.908 308.805 943.3 308.3C943.694 307.802 944.196 307.4 944.767 307.123C945.339 306.846 945.965 306.701 946.6 306.7H961.3C962.414 306.705 963.491 307.097 964.349 307.808C965.206 308.52 965.789 309.506 966 310.6C970.043 331.907 972.715 353.451 974 375.1H1037.7C1039.07 375.123 1040.38 375.678 1041.35 376.649C1042.32 377.619 1042.88 378.928 1042.9 380.3Z" fill="#14326C"/>
<path d="M957.298 275.6C927.249 201.695 877.625 137.377 813.76 89.5623C749.895 41.7473 674.206 12.2434 594.83 4.22249C515.453 -3.79844 435.392 9.96698 363.253 44.0388C291.114 78.1107 229.625 131.2 185.398 197.6C184.959 198.253 184.676 198.999 184.572 199.78C184.468 200.56 184.546 201.354 184.798 202.1C185.034 202.852 185.448 203.536 186.005 204.093C186.562 204.651 187.246 205.065 187.998 205.3L199.398 209.2C200.048 209.39 200.721 209.491 201.398 209.5C202.44 209.486 203.464 209.224 204.385 208.737C205.306 208.251 206.099 207.552 206.698 206.7C244.792 150.564 296.051 104.609 355.998 72.8482C415.945 41.0878 482.757 24.4885 550.598 24.5C632.334 24.514 712.255 48.6012 780.386 93.755C848.517 138.909 901.839 203.129 933.698 278.4C934.15 279.489 934.913 280.42 935.891 281.078C936.869 281.737 938.019 282.092 939.198 282.1H952.798C953.573 282.108 954.337 281.92 955.019 281.553C955.701 281.186 956.279 280.651 956.698 280C957.181 279.387 957.492 278.655 957.597 277.882C957.703 277.108 957.6 276.32 957.298 275.6ZM936.398 280.3C936.676 280.504 936.978 280.672 937.298 280.8C936.998 280.6 936.698 280.5 936.398 280.3Z" fill="url(#paint0_radial_929_3029)"/>
<defs>
<radialGradient id="paint0_radial_929_3029" cx="0" cy="0" r="1" gradientUnits="userSpaceOnUse" gradientTransform="translate(944.518 281.6) scale(760.12 760.12)">
<stop offset="0.03" stop-color="#CBFFFF"/>
<stop offset="0.06" stop-color="#96FFFF"/>
<stop offset="0.08" stop-color="#68FFFF"/>
<stop offset="0.11" stop-color="#43FFFF"/>
<stop offset="0.14" stop-color="#25FFFF"/>
<stop offset="0.16" stop-color="#11FFFF"/>
<stop offset="0.19" stop-color="#04FFFF"/>
<stop offset="0.22" stop-color="#00FFFF"/>
<stop offset="1" stop-color="#0000FF" stop-opacity="0"/>
</radialGradient>
</defs>
</svg>
